<?xml version="1.0" standalone="no"?>
<!DOCTYPE svg PUBLIC "-//W3C//DTD SVG 20010904//EN" "http://www.w3.org/TR/2001/REC-SVG-20010904/DTD/svg10.dtd">
<!-- Created using Krita: https://krita.org -->
<svg xmlns="http://www.w3.org/2000/svg" 
    xmlns:xlink="http://www.w3.org/1999/xlink"
    xmlns:krita="http://krita.org/namespaces/svg/krita"
    xmlns:sodipodi="http://sodipodi.sourceforge.net/DTD/sodipodi-0.dtd"
    width="737.28pt"
    height="737.28pt"
    viewBox="0 0 737.28 737.28">
<defs/>
<path id="shape1" transform="matrix(0.999995100618611 0 0 0.818827973897743 185.098036962444 270.988648326487)" fill="none" stroke="#ffffff" stroke-width="2.16" stroke-linecap="square" stroke-linejoin="bevel" d="M0 10.53L0 0.0306105L8.22286 0" sodipodi:nodetypes="ccc"/><path id="shape2" transform="matrix(0.999995100618611 0 0 0.818827973897743 184.995896811045 459.536059175016)" fill="none" stroke="#ffffff" stroke-width="2.16" stroke-linecap="square" stroke-linejoin="bevel" d="M0 0L0.0347727 7.75648L6.88499 7.785" sodipodi:nodetypes="ccc"/><path id="shape3" transform="matrix(0.999995100618611 0 0 0.818827973897743 545.309099337434 271.06234284381)" fill="none" stroke="#ffffff" stroke-width="2.16" stroke-linecap="square" stroke-linejoin="bevel" d="M0 0L7.60503 0L7.56701 9.45" sodipodi:nodetypes="ccc"/><path id="shape4" transform="matrix(0.999995100618611 0 0 0.818827973897743 544.589119141155 459.812425319976)" fill="none" stroke="#ffffff" stroke-width="2.16" stroke-linecap="square" stroke-linejoin="bevel" d="M0 7.83L8.37002 7.83L8.37002 0" sodipodi:nodetypes="ccc"/><path id="shape5" transform="matrix(0.999995100618611 0 0 0.818827973897743 185.400896789213 271.136038731567)" fill="none" stroke="#ffffff" stroke-width="0.72" stroke-linecap="square" stroke-linejoin="miter" stroke-miterlimit="2" d="M0 0L0 238.14" sodipodi:nodetypes="cc"/><path id="shape01" transform="matrix(0.999995100618611 0 0 0.818827973897743 552.51269008003 271.136038288921)" fill="none" stroke="#ffffff" stroke-width="0.72" stroke-linecap="square" stroke-linejoin="miter" stroke-miterlimit="2" d="M0 0L0 238.14" sodipodi:nodetypes="cc"/><path id="shape6" transform="matrix(0.999995100618611 0 0 0.876202702855026 185.537685401041 350.066262677551)" fill="none" stroke="#ffffff" stroke-width="2.16" stroke-linecap="square" stroke-linejoin="miter" stroke-miterlimit="2" d="M0.2664 0L0 30.6864" sodipodi:nodetypes="cc"/><path id="shape02" transform="matrix(0.999995100618611 0 0 0.818827973897743 185.419965989787 342.207896999051)" fill="none" stroke="#ffffff" stroke-width="1.44" stroke-linecap="square" stroke-linejoin="miter" stroke-miterlimit="2" d="M0.2664 0L0 52.2864" sodipodi:nodetypes="cc"/><path id="shape021" transform="matrix(0.999995100618611 0 0 0.818827973897743 552.216060684832 351.195699448019)" fill="none" stroke="#ffffff" stroke-width="2.16" stroke-linecap="square" stroke-linejoin="miter" stroke-miterlimit="2" d="M0.2664 0L0 30.6864" sodipodi:nodetypes="cc"/><path id="shape011" transform="matrix(0.999995100618611 0 0 0.818827973897743 552.413339301033 342.209978892056)" fill="none" stroke="#ffffff" stroke-width="1.44" stroke-linecap="square" stroke-linejoin="miter" stroke-miterlimit="2" d="M0.2664 0L0 52.2864" sodipodi:nodetypes="cc"/><path id="shape7" transform="translate(471.554983805739, 199.934993133782)" fill="#ffffff" fill-rule="evenodd" stroke="none" stroke-width="0.72" stroke-linecap="square" stroke-linejoin="bevel" d="M0.2025 0L0 9.045L42.5925 25.3125L50.2875 20.5875L73.035 29.025L74.07 27.225Z" sodipodi:nodetypes="ccccccc"/><path id="shape8" transform="translate(471.622469747987, 194.973737493496)" fill="#ffffff" fill-rule="evenodd" stroke="none" stroke-width="0.72" stroke-linecap="square" stroke-linejoin="bevel" d="M0.03375 0L0 3.47625L12.285 7.99875L10.4962 4.2525Z" sodipodi:nodetypes="ccccc"/><path id="shape9" transform="translate(530.369997592173, 217.709999011618)" fill="#ffffff" fill-rule="evenodd" stroke="none" stroke-width="0.72" stroke-linecap="square" stroke-linejoin="bevel" d="M0 2.16L14.49 7.875L14.265 4.005L3.78 0Z" sodipodi:nodetypes="ccccc"/><path id="shape10" transform="translate(175.994993955944, 218.384992500178)" fill="#ffffff" fill-rule="evenodd" stroke="none" stroke-width="0.72" stroke-linecap="square" stroke-linejoin="bevel" d="M0 10.305L26.775 0L30.33 0L30.33 2.34L0.315 13.59Z" sodipodi:nodetypes="cccccc"/><path id="shape11" transform="translate(254.114983699918, 195.389987466804)" fill="#ffffff" fill-rule="evenodd" stroke="none" stroke-width="0.72" stroke-linecap="square" stroke-linejoin="bevel" d="M2.295 3.24L0 5.355L0.225 7.605L11.34 2.97L11.295 0Z" sodipodi:nodetypes="cccccc"/><path id="shape12" transform="translate(170.63999413985, 200.407493117569)" fill="#ffffff" fill-rule="evenodd" stroke="none" stroke-width="0.72" stroke-linecap="square" stroke-linejoin="bevel" d="M44.955 20.0475L52.92 24.57L94.77 8.57249L94.7025 0L2.29499 34.6275L2.295 63.9225L0.135 64.4625L0 96.1875L2.565 96.0525L2.7 39.4875L11.475 36.2475L11.34 32.0625Z" sodipodi:nodetypes="ccccccccccccc"/><path id="shape13" transform="translate(170.279994152216, 458.5499842524)" fill="#ffffff" fill-rule="evenodd" stroke="none" stroke-width="0.72" stroke-linecap="square" stroke-linejoin="bevel" d="M0.09 0L0 13.05L1.62 13.68L1.62 43.92L95.04 78.21L94.95 69.93L53.46 53.73L46.44 58.23L12.195 45.99L12.15 41.985L3.735 38.475L3.645 0.135Z" sodipodi:nodetypes="ccccccccccccc"/><path id="shape14" transform="translate(175.972493956726, 505.709982632832)" fill="#ffffff" fill-rule="evenodd" stroke="none" stroke-width="0.72" stroke-linecap="square" stroke-linejoin="bevel" d="M0.54 0L30.5775 10.8L26.46 13.095L0 3.0375Z" sodipodi:nodetypes="ccccc"/><path id="shape15" transform="translate(254.339998845342, 534.19499757485)" fill="#ffffff" fill-rule="evenodd" stroke="none" stroke-width="0.72" stroke-linecap="square" stroke-linejoin="bevel" d="M0 0L11.475 4.2525L11.4075 7.4925L1.2825 3.5775Z" sodipodi:nodetypes="ccccc"/><path id="shape16" transform="translate(471.824983796521, 440.437484874436)" fill="#ffffff" fill-rule="evenodd" stroke="none" stroke-width="0.72" stroke-linecap="square" stroke-linejoin="bevel" d="M0 88.2225L41.715 71.8875L50.355 76.3425L83.43 64.4625L83.7 60.0075L91.665 57.4425L92.205 0L95.5125 0.0675L95.58 31.6575L93.7575 32.94L93.69 62.1675L1.40615e-05 96.4575Z" sodipodi:nodetypes="ccccccccccccc"/><path id="shape17" transform="translate(471.689969743704, 534.824965693945)" fill="#ffffff" fill-rule="evenodd" stroke="none" stroke-width="0.72" stroke-linecap="square" stroke-linejoin="bevel" d="M0.135 3.42L0 7.065L8.955 3.825L11.34 0Z" sodipodi:nodetypes="ccccc"/><path id="shape18" transform="translate(530.729997590591, 505.574997704789)" fill="#ffffff" fill-rule="evenodd" stroke="none" stroke-width="0.72" stroke-linecap="square" stroke-linejoin="bevel" d="M0 11.205L30.645 0L30.69 3.555L3.195 13.68Z" sodipodi:nodetypes="ccccc"/>
</svg>
